<svg width="1440" height="1024" viewBox="0 0 1440 1024" fill="none" xmlns="http://www.w3.org/2000/svg">
<rect width="1440" height="1024" fill="#F5F5F5"/>
<g clip-path="url(#clip0_0_1)">
<rect width="1440" height="1024" fill="white"/>
<rect width="392" height="1024" fill="#D9D9D9"/>
<g filter="url(#filter0_d_0_1)">
<path d="M62 171H325V866H62V171Z" fill="white"/>
</g>
<path d="M93.2727 427.727V451H90.5455L77.8636 432.727H77.6364V451H74.8182V427.727H77.5455L90.2727 446.045H90.5V427.727H93.2727ZM103.685 451.409C102.579 451.409 101.575 451.201 100.673 450.784C99.7718 450.36 99.0559 449.75 98.5256 448.955C97.9953 448.152 97.7301 447.182 97.7301 446.045C97.7301 445.045 97.9271 444.235 98.321 443.614C98.715 442.985 99.2415 442.492 99.9006 442.136C100.56 441.78 101.287 441.515 102.082 441.341C102.885 441.159 103.692 441.015 104.503 440.909C105.563 440.773 106.423 440.67 107.082 440.602C107.749 440.527 108.234 440.402 108.537 440.227C108.848 440.053 109.003 439.75 109.003 439.318V439.227C109.003 438.106 108.696 437.235 108.082 436.614C107.476 435.992 106.556 435.682 105.321 435.682C104.041 435.682 103.037 435.962 102.31 436.523C101.582 437.083 101.071 437.682 100.776 438.318L98.2301 437.409C98.6847 436.348 99.2907 435.523 100.048 434.932C100.813 434.333 101.647 433.917 102.548 433.682C103.457 433.439 104.351 433.318 105.23 433.318C105.791 433.318 106.435 433.386 107.162 433.523C107.897 433.652 108.605 433.92 109.287 434.33C109.976 434.739 110.548 435.356 111.003 436.182C111.457 437.008 111.685 438.114 111.685 439.5V451H109.003V448.636H108.866C108.685 449.015 108.382 449.42 107.957 449.852C107.533 450.284 106.969 450.652 106.264 450.955C105.56 451.258 104.7 451.409 103.685 451.409ZM104.094 449C105.154 449 106.048 448.792 106.776 448.375C107.51 447.958 108.063 447.42 108.435 446.761C108.813 446.102 109.003 445.409 109.003 444.682V442.227C108.889 442.364 108.639 442.489 108.253 442.602C107.874 442.708 107.435 442.803 106.935 442.886C106.442 442.962 105.961 443.03 105.491 443.091C105.029 443.144 104.654 443.189 104.366 443.227C103.67 443.318 103.018 443.466 102.412 443.67C101.813 443.867 101.329 444.167 100.957 444.568C100.594 444.962 100.412 445.5 100.412 446.182C100.412 447.114 100.757 447.818 101.446 448.295C102.143 448.765 103.026 449 104.094 449ZM130.227 433.545L123.773 451H121.045L114.591 433.545H117.5L122.318 447.455H122.5L127.318 433.545H130.227ZM133.767 451V433.545H136.449V451H133.767ZM135.131 430.636C134.608 430.636 134.157 430.458 133.778 430.102C133.407 429.746 133.222 429.318 133.222 428.818C133.222 428.318 133.407 427.89 133.778 427.534C134.157 427.178 134.608 427 135.131 427C135.653 427 136.1 427.178 136.472 427.534C136.85 427.89 137.04 428.318 137.04 428.818C137.04 429.318 136.85 429.746 136.472 430.102C136.1 430.458 135.653 430.636 135.131 430.636ZM148.406 457.909C147.111 457.909 145.997 457.742 145.065 457.409C144.134 457.083 143.357 456.652 142.736 456.114C142.122 455.583 141.634 455.015 141.27 454.409L143.406 452.909C143.649 453.227 143.955 453.591 144.327 454C144.698 454.417 145.205 454.777 145.849 455.08C146.501 455.39 147.353 455.545 148.406 455.545C149.815 455.545 150.978 455.205 151.895 454.523C152.812 453.841 153.27 452.773 153.27 451.318V447.773H153.043C152.846 448.091 152.565 448.485 152.202 448.955C151.846 449.417 151.33 449.83 150.656 450.193C149.99 450.549 149.088 450.727 147.952 450.727C146.543 450.727 145.277 450.394 144.156 449.727C143.043 449.061 142.16 448.091 141.509 446.818C140.865 445.545 140.543 444 140.543 442.182C140.543 440.394 140.857 438.837 141.486 437.511C142.115 436.178 142.99 435.148 144.111 434.42C145.232 433.686 146.527 433.318 147.997 433.318C149.134 433.318 150.035 433.508 150.702 433.886C151.376 434.258 151.891 434.682 152.247 435.159C152.611 435.629 152.891 436.015 153.088 436.318H153.361V433.545H155.952V451.5C155.952 453 155.611 454.22 154.929 455.159C154.255 456.106 153.346 456.799 152.202 457.239C151.065 457.686 149.8 457.909 148.406 457.909ZM148.315 448.318C149.391 448.318 150.3 448.072 151.043 447.58C151.785 447.087 152.349 446.379 152.736 445.455C153.122 444.53 153.315 443.424 153.315 442.136C153.315 440.879 153.126 439.769 152.747 438.807C152.368 437.845 151.808 437.091 151.065 436.545C150.323 436 149.406 435.727 148.315 435.727C147.179 435.727 146.232 436.015 145.474 436.591C144.724 437.167 144.16 437.939 143.781 438.909C143.41 439.879 143.224 440.955 143.224 442.136C143.224 443.348 143.414 444.42 143.793 445.352C144.179 446.277 144.747 447.004 145.497 447.534C146.255 448.057 147.194 448.318 148.315 448.318ZM165.997 451.409C164.891 451.409 163.887 451.201 162.986 450.784C162.084 450.36 161.368 449.75 160.838 448.955C160.308 448.152 160.043 447.182 160.043 446.045C160.043 445.045 160.24 444.235 160.634 443.614C161.027 442.985 161.554 442.492 162.213 442.136C162.872 441.78 163.599 441.515 164.395 441.341C165.198 441.159 166.005 441.015 166.815 440.909C167.876 440.773 168.736 440.67 169.395 440.602C170.062 440.527 170.546 440.402 170.849 440.227C171.16 440.053 171.315 439.75 171.315 439.318V439.227C171.315 438.106 171.009 437.235 170.395 436.614C169.789 435.992 168.868 435.682 167.634 435.682C166.353 435.682 165.349 435.962 164.622 436.523C163.895 437.083 163.384 437.682 163.088 438.318L160.543 437.409C160.997 436.348 161.603 435.523 162.361 434.932C163.126 434.333 163.959 433.917 164.861 433.682C165.77 433.439 166.664 433.318 167.543 433.318C168.103 433.318 168.747 433.386 169.474 433.523C170.209 433.652 170.918 433.92 171.599 434.33C172.289 434.739 172.861 435.356 173.315 436.182C173.77 437.008 173.997 438.114 173.997 439.5V451H171.315V448.636H171.179C170.997 449.015 170.694 449.42 170.27 449.852C169.846 450.284 169.281 450.652 168.577 450.955C167.872 451.258 167.012 451.409 165.997 451.409ZM166.406 449C167.467 449 168.361 448.792 169.088 448.375C169.823 447.958 170.376 447.42 170.747 446.761C171.126 446.102 171.315 445.409 171.315 444.682V442.227C171.202 442.364 170.952 442.489 170.565 442.602C170.187 442.708 169.747 442.803 169.247 442.886C168.755 442.962 168.274 443.03 167.804 443.091C167.342 443.144 166.967 443.189 166.679 443.227C165.982 443.318 165.33 443.466 164.724 443.67C164.126 443.867 163.641 444.167 163.27 444.568C162.906 444.962 162.724 445.5 162.724 446.182C162.724 447.114 163.069 447.818 163.759 448.295C164.455 448.765 165.338 449 166.406 449ZM186.483 433.545V435.818H177.438V433.545H186.483ZM180.074 429.364H182.756V446C182.756 446.758 182.866 447.326 183.085 447.705C183.313 448.076 183.6 448.326 183.949 448.455C184.305 448.576 184.68 448.636 185.074 448.636C185.369 448.636 185.612 448.621 185.801 448.591C185.991 448.553 186.142 448.523 186.256 448.5L186.801 450.909C186.619 450.977 186.366 451.045 186.04 451.114C185.714 451.189 185.301 451.227 184.801 451.227C184.044 451.227 183.301 451.064 182.574 450.739C181.854 450.413 181.256 449.917 180.778 449.25C180.309 448.583 180.074 447.742 180.074 446.727V429.364ZM190.517 451V433.545H193.199V451H190.517ZM191.881 430.636C191.358 430.636 190.907 430.458 190.528 430.102C190.157 429.746 189.972 429.318 189.972 428.818C189.972 428.318 190.157 427.89 190.528 427.534C190.907 427.178 191.358 427 191.881 427C192.403 427 192.85 427.178 193.222 427.534C193.6 427.89 193.79 428.318 193.79 428.818C193.79 429.318 193.6 429.746 193.222 430.102C192.85 430.458 192.403 430.636 191.881 430.636ZM205.202 451.364C203.626 451.364 202.243 450.989 201.054 450.239C199.872 449.489 198.948 448.439 198.281 447.091C197.622 445.742 197.293 444.167 197.293 442.364C197.293 440.545 197.622 438.958 198.281 437.602C198.948 436.246 199.872 435.193 201.054 434.443C202.243 433.693 203.626 433.318 205.202 433.318C206.777 433.318 208.156 433.693 209.338 434.443C210.527 435.193 211.452 436.246 212.111 437.602C212.777 438.958 213.111 440.545 213.111 442.364C213.111 444.167 212.777 445.742 212.111 447.091C211.452 448.439 210.527 449.489 209.338 450.239C208.156 450.989 206.777 451.364 205.202 451.364ZM205.202 448.955C206.399 448.955 207.384 448.648 208.156 448.034C208.929 447.42 209.501 446.614 209.872 445.614C210.243 444.614 210.429 443.53 210.429 442.364C210.429 441.197 210.243 440.11 209.872 439.102C209.501 438.095 208.929 437.28 208.156 436.659C207.384 436.038 206.399 435.727 205.202 435.727C204.005 435.727 203.02 436.038 202.247 436.659C201.474 437.28 200.902 438.095 200.531 439.102C200.16 440.11 199.974 441.197 199.974 442.364C199.974 443.53 200.16 444.614 200.531 445.614C200.902 446.614 201.474 447.42 202.247 448.034C203.02 448.648 204.005 448.955 205.202 448.955ZM219.886 440.5V451H217.205V433.545H219.795V436.273H220.023C220.432 435.386 221.053 434.674 221.886 434.136C222.72 433.591 223.795 433.318 225.114 433.318C226.295 433.318 227.33 433.561 228.216 434.045C229.102 434.523 229.792 435.25 230.284 436.227C230.777 437.197 231.023 438.424 231.023 439.909V451H228.341V440.091C228.341 438.72 227.985 437.652 227.273 436.886C226.561 436.114 225.583 435.727 224.341 435.727C223.485 435.727 222.72 435.913 222.045 436.284C221.379 436.655 220.852 437.197 220.466 437.909C220.08 438.621 219.886 439.485 219.886 440.5ZM245.287 451V427.727H248.105V448.5H258.923V451H245.287ZM262.923 451V433.545H265.605V451H262.923ZM264.287 430.636C263.764 430.636 263.313 430.458 262.935 430.102C262.563 429.746 262.378 429.318 262.378 428.818C262.378 428.318 262.563 427.89 262.935 427.534C263.313 427.178 263.764 427 264.287 427C264.81 427 265.257 427.178 265.628 427.534C266.007 427.89 266.196 428.318 266.196 428.818C266.196 429.318 266.007 429.746 265.628 430.102C265.257 430.458 264.81 430.636 264.287 430.636ZM273.199 440.5V451H270.517V433.545H273.108V436.273H273.335C273.744 435.386 274.366 434.674 275.199 434.136C276.032 433.591 277.108 433.318 278.426 433.318C279.608 433.318 280.642 433.561 281.528 434.045C282.415 434.523 283.104 435.25 283.597 436.227C284.089 437.197 284.335 438.424 284.335 439.909V451H281.653V440.091C281.653 438.72 281.297 437.652 280.585 436.886C279.873 436.114 278.896 435.727 277.653 435.727C276.797 435.727 276.032 435.913 275.358 436.284C274.691 436.655 274.165 437.197 273.778 437.909C273.392 438.621 273.199 439.485 273.199 440.5ZM291.736 444.636L291.69 441.318H292.236L299.872 433.545H303.19L295.054 441.773H294.827L291.736 444.636ZM289.236 451V427.727H291.918V451H289.236ZM300.327 451L293.509 442.364L295.418 440.5L303.736 451H300.327ZM319.006 437.455L316.597 438.136C316.445 437.735 316.222 437.345 315.926 436.966C315.638 436.58 315.244 436.261 314.744 436.011C314.244 435.761 313.604 435.636 312.824 435.636C311.756 435.636 310.866 435.883 310.153 436.375C309.449 436.86 309.097 437.477 309.097 438.227C309.097 438.894 309.339 439.42 309.824 439.807C310.309 440.193 311.066 440.515 312.097 440.773L314.688 441.409C316.248 441.788 317.411 442.367 318.176 443.148C318.941 443.92 319.324 444.917 319.324 446.136C319.324 447.136 319.036 448.03 318.46 448.818C317.892 449.606 317.097 450.227 316.074 450.682C315.051 451.136 313.862 451.364 312.506 451.364C310.725 451.364 309.252 450.977 308.085 450.205C306.919 449.432 306.18 448.303 305.869 446.818L308.415 446.182C308.657 447.121 309.116 447.826 309.79 448.295C310.472 448.765 311.362 449 312.46 449C313.71 449 314.703 448.735 315.438 448.205C316.18 447.667 316.551 447.023 316.551 446.273C316.551 445.667 316.339 445.159 315.915 444.75C315.491 444.333 314.839 444.023 313.96 443.818L311.051 443.136C309.453 442.758 308.278 442.17 307.528 441.375C306.786 440.572 306.415 439.568 306.415 438.364C306.415 437.379 306.691 436.508 307.244 435.75C307.805 434.992 308.566 434.398 309.528 433.966C310.498 433.534 311.597 433.318 312.824 433.318C314.551 433.318 315.907 433.697 316.892 434.455C317.884 435.212 318.589 436.212 319.006 437.455Z" fill="black"/>
<g filter="url(#filter1_d_0_1)">
<rect x="46" y="41" width="294" height="55" fill="white"/>
</g>
<path d="M124 80H116.818V56.7273H124.318C126.576 56.7273 128.508 57.1932 130.114 58.125C131.72 59.0492 132.951 60.3788 133.807 62.1136C134.663 63.8409 135.091 65.9091 135.091 68.3182C135.091 70.7424 134.659 72.8295 133.795 74.5795C132.932 76.322 131.674 77.6629 130.023 78.6023C128.371 79.5341 126.364 80 124 80ZM119.636 77.5H123.818C125.742 77.5 127.337 77.1288 128.602 76.3864C129.867 75.6439 130.811 74.5871 131.432 73.2159C132.053 71.8447 132.364 70.2121 132.364 68.3182C132.364 66.4394 132.057 64.822 131.443 63.4659C130.83 62.1023 129.913 61.0568 128.693 60.3295C127.473 59.5947 125.955 59.2273 124.136 59.2273H119.636V77.5ZM144.591 80.4091C143.485 80.4091 142.481 80.2008 141.58 79.7841C140.678 79.3598 139.962 78.75 139.432 77.9545C138.902 77.1515 138.636 76.1818 138.636 75.0455C138.636 74.0455 138.833 73.2348 139.227 72.6136C139.621 71.9848 140.148 71.4924 140.807 71.1364C141.466 70.7803 142.193 70.5152 142.989 70.3409C143.792 70.1591 144.598 70.0152 145.409 69.9091C146.47 69.7727 147.33 69.6705 147.989 69.6023C148.655 69.5265 149.14 69.4015 149.443 69.2273C149.754 69.053 149.909 68.75 149.909 68.3182V68.2273C149.909 67.1061 149.602 66.2348 148.989 65.6136C148.383 64.9924 147.462 64.6818 146.227 64.6818C144.947 64.6818 143.943 64.9621 143.216 65.5227C142.489 66.0833 141.977 66.6818 141.682 67.3182L139.136 66.4091C139.591 65.3485 140.197 64.5227 140.955 63.9318C141.72 63.3333 142.553 62.9167 143.455 62.6818C144.364 62.4394 145.258 62.3182 146.136 62.3182C146.697 62.3182 147.341 62.3864 148.068 62.5227C148.803 62.6515 149.511 62.9205 150.193 63.3295C150.883 63.7386 151.455 64.3561 151.909 65.1818C152.364 66.0076 152.591 67.1136 152.591 68.5V80H149.909V77.6364H149.773C149.591 78.0152 149.288 78.4205 148.864 78.8523C148.439 79.2841 147.875 79.6515 147.17 79.9545C146.466 80.2576 145.606 80.4091 144.591 80.4091ZM145 78C146.061 78 146.955 77.7917 147.682 77.375C148.417 76.9583 148.97 76.4205 149.341 75.7614C149.72 75.1023 149.909 74.4091 149.909 73.6818V71.2273C149.795 71.3636 149.545 71.4886 149.159 71.6023C148.78 71.7083 148.341 71.803 147.841 71.8864C147.348 71.9621 146.867 72.0303 146.398 72.0909C145.936 72.1439 145.561 72.1894 145.273 72.2273C144.576 72.3182 143.924 72.4659 143.318 72.6705C142.72 72.8674 142.235 73.1667 141.864 73.5682C141.5 73.9621 141.318 74.5 141.318 75.1818C141.318 76.1136 141.663 76.8182 142.352 77.2955C143.049 77.7652 143.932 78 145 78ZM169.849 66.4545L167.44 67.1364C167.289 66.7348 167.065 66.3447 166.77 65.9659C166.482 65.5795 166.088 65.2614 165.588 65.0114C165.088 64.7614 164.448 64.6364 163.668 64.6364C162.599 64.6364 161.709 64.8826 160.997 65.375C160.293 65.8598 159.94 66.4773 159.94 67.2273C159.94 67.8939 160.183 68.4205 160.668 68.8068C161.152 69.1932 161.91 69.5152 162.94 69.7727L165.531 70.4091C167.092 70.7879 168.255 71.3674 169.02 72.1477C169.785 72.9205 170.168 73.9167 170.168 75.1364C170.168 76.1364 169.88 77.0303 169.304 77.8182C168.736 78.6061 167.94 79.2273 166.918 79.6818C165.895 80.1364 164.705 80.3636 163.349 80.3636C161.569 80.3636 160.096 79.9773 158.929 79.2045C157.762 78.4318 157.024 77.303 156.713 75.8182L159.259 75.1818C159.501 76.1212 159.959 76.8258 160.634 77.2955C161.315 77.7652 162.205 78 163.304 78C164.554 78 165.546 77.7348 166.281 77.2045C167.024 76.6667 167.395 76.0227 167.395 75.2727C167.395 74.6667 167.183 74.1591 166.759 73.75C166.334 73.3333 165.683 73.0227 164.804 72.8182L161.895 72.1364C160.296 71.7576 159.122 71.1705 158.372 70.375C157.63 69.572 157.259 68.5682 157.259 67.3636C157.259 66.3788 157.535 65.5076 158.088 64.75C158.649 63.9924 159.41 63.3977 160.372 62.9659C161.342 62.5341 162.44 62.3182 163.668 62.3182C165.395 62.3182 166.751 62.697 167.736 63.4545C168.728 64.2121 169.433 65.2121 169.849 66.4545ZM176.886 69.5V80H174.205V56.7273H176.886V65.2727H177.114C177.523 64.3712 178.136 63.6553 178.955 63.125C179.78 62.5871 180.879 62.3182 182.25 62.3182C183.439 62.3182 184.481 62.5568 185.375 63.0341C186.269 63.5038 186.962 64.2273 187.455 65.2045C187.955 66.1742 188.205 67.4091 188.205 68.9091V80H185.523V69.0909C185.523 67.7045 185.163 66.6326 184.443 65.875C183.731 65.1098 182.742 64.7273 181.477 64.7273C180.598 64.7273 179.811 64.9129 179.114 65.2841C178.424 65.6553 177.879 66.197 177.477 66.9091C177.083 67.6212 176.886 68.4848 176.886 69.5ZM193.474 80V56.7273H196.156V65.3182H196.384C196.58 65.0152 196.853 64.6288 197.202 64.1591C197.558 63.6818 198.065 63.2576 198.724 62.8864C199.391 62.5076 200.293 62.3182 201.429 62.3182C202.899 62.3182 204.194 62.6856 205.315 63.4205C206.437 64.1553 207.312 65.197 207.94 66.5455C208.569 67.8939 208.884 69.4848 208.884 71.3182C208.884 73.1667 208.569 74.7689 207.94 76.125C207.312 77.4735 206.44 78.5189 205.327 79.2614C204.213 79.9962 202.929 80.3636 201.474 80.3636C200.353 80.3636 199.455 80.178 198.781 79.8068C198.107 79.428 197.588 79 197.224 78.5227C196.861 78.0379 196.58 77.6364 196.384 77.3182H196.065V80H193.474ZM196.111 71.2727C196.111 72.5909 196.304 73.7538 196.69 74.7614C197.077 75.7614 197.641 76.5455 198.384 77.1136C199.126 77.6742 200.035 77.9545 201.111 77.9545C202.232 77.9545 203.168 77.6591 203.918 77.0682C204.675 76.4697 205.243 75.6667 205.622 74.6591C206.009 73.6439 206.202 72.5152 206.202 71.2727C206.202 70.0455 206.012 68.9394 205.634 67.9545C205.262 66.9621 204.698 66.178 203.94 65.6023C203.19 65.0189 202.247 64.7273 201.111 64.7273C200.02 64.7273 199.103 65.0038 198.361 65.5568C197.618 66.1023 197.058 66.8674 196.679 67.8523C196.3 68.8295 196.111 69.9697 196.111 71.2727ZM220.077 80.3636C218.501 80.3636 217.118 79.9886 215.929 79.2386C214.747 78.4886 213.823 77.4394 213.156 76.0909C212.497 74.7424 212.168 73.1667 212.168 71.3636C212.168 69.5455 212.497 67.9583 213.156 66.6023C213.823 65.2462 214.747 64.1932 215.929 63.4432C217.118 62.6932 218.501 62.3182 220.077 62.3182C221.652 62.3182 223.031 62.6932 224.213 63.4432C225.402 64.1932 226.327 65.2462 226.986 66.6023C227.652 67.9583 227.986 69.5455 227.986 71.3636C227.986 73.1667 227.652 74.7424 226.986 76.0909C226.327 77.4394 225.402 78.4886 224.213 79.2386C223.031 79.9886 221.652 80.3636 220.077 80.3636ZM220.077 77.9545C221.274 77.9545 222.259 77.6477 223.031 77.0341C223.804 76.4205 224.376 75.6136 224.747 74.6136C225.118 73.6136 225.304 72.5303 225.304 71.3636C225.304 70.197 225.118 69.1098 224.747 68.1023C224.376 67.0947 223.804 66.2803 223.031 65.6591C222.259 65.0379 221.274 64.7273 220.077 64.7273C218.88 64.7273 217.895 65.0379 217.122 65.6591C216.349 66.2803 215.777 67.0947 215.406 68.1023C215.035 69.1098 214.849 70.197 214.849 71.3636C214.849 72.5303 215.035 73.6136 215.406 74.6136C215.777 75.6136 216.349 76.4205 217.122 77.0341C217.895 77.6477 218.88 77.9545 220.077 77.9545ZM237.216 80.4091C236.11 80.4091 235.106 80.2008 234.205 79.7841C233.303 79.3598 232.587 78.75 232.057 77.9545C231.527 77.1515 231.261 76.1818 231.261 75.0455C231.261 74.0455 231.458 73.2348 231.852 72.6136C232.246 71.9848 232.773 71.4924 233.432 71.1364C234.091 70.7803 234.818 70.5152 235.614 70.3409C236.417 70.1591 237.223 70.0152 238.034 69.9091C239.095 69.7727 239.955 69.6705 240.614 69.6023C241.28 69.5265 241.765 69.4015 242.068 69.2273C242.379 69.053 242.534 68.75 242.534 68.3182V68.2273C242.534 67.1061 242.227 66.2348 241.614 65.6136C241.008 64.9924 240.087 64.6818 238.852 64.6818C237.572 64.6818 236.568 64.9621 235.841 65.5227C235.114 66.0833 234.602 66.6818 234.307 67.3182L231.761 66.4091C232.216 65.3485 232.822 64.5227 233.58 63.9318C234.345 63.3333 235.178 62.9167 236.08 62.6818C236.989 62.4394 237.883 62.3182 238.761 62.3182C239.322 62.3182 239.966 62.3864 240.693 62.5227C241.428 62.6515 242.136 62.9205 242.818 63.3295C243.508 63.7386 244.08 64.3561 244.534 65.1818C244.989 66.0076 245.216 67.1136 245.216 68.5V80H242.534V77.6364H242.398C242.216 78.0152 241.913 78.4205 241.489 78.8523C241.064 79.2841 240.5 79.6515 239.795 79.9545C239.091 80.2576 238.231 80.4091 237.216 80.4091ZM237.625 78C238.686 78 239.58 77.7917 240.307 77.375C241.042 76.9583 241.595 76.4205 241.966 75.7614C242.345 75.1023 242.534 74.4091 242.534 73.6818V71.2273C242.42 71.3636 242.17 71.4886 241.784 71.6023C241.405 71.7083 240.966 71.803 240.466 71.8864C239.973 71.9621 239.492 72.0303 239.023 72.0909C238.561 72.1439 238.186 72.1894 237.898 72.2273C237.201 72.3182 236.549 72.4659 235.943 72.6705C235.345 72.8674 234.86 73.1667 234.489 73.5682C234.125 73.9621 233.943 74.5 233.943 75.1818C233.943 76.1136 234.288 76.8182 234.977 77.2955C235.674 77.7652 236.557 78 237.625 78ZM250.111 80V62.5455H252.702V65.1818H252.884C253.202 64.3182 253.777 63.6174 254.611 63.0795C255.444 62.5417 256.384 62.2727 257.429 62.2727C257.626 62.2727 257.872 62.2765 258.168 62.2841C258.463 62.2917 258.687 62.303 258.838 62.3182V65.0455C258.747 65.0227 258.539 64.9886 258.213 64.9432C257.895 64.8902 257.558 64.8636 257.202 64.8636C256.353 64.8636 255.596 65.0417 254.929 65.3977C254.27 65.7462 253.747 66.2311 253.361 66.8523C252.982 67.4659 252.793 68.1667 252.793 68.9545V80H250.111ZM268.077 80.3636C266.622 80.3636 265.338 79.9962 264.224 79.2614C263.111 78.5189 262.24 77.4735 261.611 76.125C260.982 74.7689 260.668 73.1667 260.668 71.3182C260.668 69.4848 260.982 67.8939 261.611 66.5455C262.24 65.197 263.115 64.1553 264.236 63.4205C265.357 62.6856 266.652 62.3182 268.122 62.3182C269.259 62.3182 270.156 62.5076 270.815 62.8864C271.482 63.2576 271.99 63.6818 272.338 64.1591C272.694 64.6288 272.971 65.0152 273.168 65.3182H273.395V56.7273H276.077V80H273.486V77.3182H273.168C272.971 77.6364 272.69 78.0379 272.327 78.5227C271.963 79 271.444 79.428 270.77 79.8068C270.096 80.178 269.198 80.3636 268.077 80.3636ZM268.44 77.9545C269.516 77.9545 270.425 77.6742 271.168 77.1136C271.91 76.5455 272.474 75.7614 272.861 74.7614C273.247 73.7538 273.44 72.5909 273.44 71.2727C273.44 69.9697 273.251 68.8295 272.872 67.8523C272.493 66.8674 271.933 66.1023 271.19 65.5568C270.448 65.0038 269.531 64.7273 268.44 64.7273C267.304 64.7273 266.357 65.0189 265.599 65.6023C264.849 66.178 264.285 66.9621 263.906 67.9545C263.535 68.9394 263.349 70.0455 263.349 71.2727C263.349 72.5152 263.539 73.6439 263.918 74.6591C264.304 75.6667 264.872 76.4697 265.622 77.0682C266.38 77.6591 267.319 77.9545 268.44 77.9545Z" fill="black"/>
<rect x="392" width="1048" height="186" fill="#C8F0EE"/>
<path d="M547.818 137V113.727H555.682C557.508 113.727 559 114.057 560.159 114.716C561.326 115.367 562.189 116.25 562.75 117.364C563.311 118.477 563.591 119.72 563.591 121.091C563.591 122.462 563.311 123.708 562.75 124.83C562.197 125.951 561.341 126.845 560.182 127.511C559.023 128.17 557.538 128.5 555.727 128.5H550.091V126H555.636C556.886 126 557.89 125.784 558.648 125.352C559.405 124.92 559.955 124.337 560.295 123.602C560.644 122.86 560.818 122.023 560.818 121.091C560.818 120.159 560.644 119.326 560.295 118.591C559.955 117.856 559.402 117.28 558.636 116.864C557.871 116.439 556.856 116.227 555.591 116.227H550.636V137H547.818ZM567.767 137V119.545H570.358V122.182H570.54C570.858 121.318 571.434 120.617 572.267 120.08C573.1 119.542 574.04 119.273 575.085 119.273C575.282 119.273 575.528 119.277 575.824 119.284C576.119 119.292 576.343 119.303 576.494 119.318V122.045C576.403 122.023 576.195 121.989 575.869 121.943C575.551 121.89 575.214 121.864 574.858 121.864C574.009 121.864 573.252 122.042 572.585 122.398C571.926 122.746 571.403 123.231 571.017 123.852C570.638 124.466 570.449 125.167 570.449 125.955V137H567.767ZM586.233 137.364C584.657 137.364 583.275 136.989 582.085 136.239C580.903 135.489 579.979 134.439 579.312 133.091C578.653 131.742 578.324 130.167 578.324 128.364C578.324 126.545 578.653 124.958 579.312 123.602C579.979 122.246 580.903 121.193 582.085 120.443C583.275 119.693 584.657 119.318 586.233 119.318C587.809 119.318 589.188 119.693 590.369 120.443C591.559 121.193 592.483 122.246 593.142 123.602C593.809 124.958 594.142 126.545 594.142 128.364C594.142 130.167 593.809 131.742 593.142 133.091C592.483 134.439 591.559 135.489 590.369 136.239C589.188 136.989 587.809 137.364 586.233 137.364ZM586.233 134.955C587.43 134.955 588.415 134.648 589.188 134.034C589.96 133.42 590.532 132.614 590.903 131.614C591.275 130.614 591.46 129.53 591.46 128.364C591.46 127.197 591.275 126.11 590.903 125.102C590.532 124.095 589.96 123.28 589.188 122.659C588.415 122.038 587.43 121.727 586.233 121.727C585.036 121.727 584.051 122.038 583.278 122.659C582.506 123.28 581.934 124.095 581.562 125.102C581.191 126.11 581.006 127.197 581.006 128.364C581.006 129.53 581.191 130.614 581.562 131.614C581.934 132.614 582.506 133.42 583.278 134.034C584.051 134.648 585.036 134.955 586.233 134.955ZM606.009 119.545V121.818H596.599V119.545H606.009ZM599.418 137V117.136C599.418 116.136 599.652 115.303 600.122 114.636C600.592 113.97 601.202 113.47 601.952 113.136C602.702 112.803 603.493 112.636 604.327 112.636C604.986 112.636 605.524 112.689 605.94 112.795C606.357 112.902 606.668 113 606.872 113.091L606.099 115.409C605.963 115.364 605.774 115.307 605.531 115.239C605.296 115.17 604.986 115.136 604.599 115.136C603.713 115.136 603.073 115.36 602.679 115.807C602.293 116.254 602.099 116.909 602.099 117.773V137H599.418ZM609.767 137V119.545H612.449V137H609.767ZM611.131 116.636C610.608 116.636 610.157 116.458 609.778 116.102C609.407 115.746 609.222 115.318 609.222 114.818C609.222 114.318 609.407 113.89 609.778 113.534C610.157 113.178 610.608 113 611.131 113C611.653 113 612.1 113.178 612.472 113.534C612.85 113.89 613.04 114.318 613.04 114.818C613.04 115.318 612.85 115.746 612.472 116.102C612.1 116.458 611.653 116.636 611.131 116.636ZM620.043 113.727V137H617.361V113.727H620.043ZM632.273 137.364C630.591 137.364 629.14 136.992 627.92 136.25C626.708 135.5 625.773 134.455 625.114 133.114C624.462 131.765 624.136 130.197 624.136 128.409C624.136 126.621 624.462 125.045 625.114 123.682C625.773 122.311 626.689 121.242 627.864 120.477C629.045 119.705 630.424 119.318 632 119.318C632.909 119.318 633.807 119.47 634.693 119.773C635.58 120.076 636.386 120.568 637.114 121.25C637.841 121.924 638.42 122.818 638.852 123.932C639.284 125.045 639.5 126.417 639.5 128.045V129.182H626.045V126.864H636.773C636.773 125.879 636.576 125 636.182 124.227C635.795 123.455 635.242 122.845 634.523 122.398C633.811 121.951 632.97 121.727 632 121.727C630.932 121.727 630.008 121.992 629.227 122.523C628.455 123.045 627.86 123.727 627.443 124.568C627.027 125.409 626.818 126.311 626.818 127.273V128.818C626.818 130.136 627.045 131.254 627.5 132.17C627.962 133.08 628.602 133.773 629.42 134.25C630.239 134.72 631.189 134.955 632.273 134.955C632.977 134.955 633.614 134.856 634.182 134.659C634.758 134.455 635.254 134.152 635.67 133.75C636.087 133.341 636.409 132.833 636.636 132.227L639.227 132.955C638.955 133.833 638.496 134.606 637.852 135.273C637.208 135.932 636.413 136.447 635.466 136.818C634.519 137.182 633.455 137.364 632.273 137.364ZM655.261 126.5V137H652.58V119.545H655.17V122.273H655.398C655.807 121.386 656.428 120.674 657.261 120.136C658.095 119.591 659.17 119.318 660.489 119.318C661.67 119.318 662.705 119.561 663.591 120.045C664.477 120.523 665.167 121.25 665.659 122.227C666.152 123.197 666.398 124.424 666.398 125.909V137H663.716V126.091C663.716 124.72 663.36 123.652 662.648 122.886C661.936 122.114 660.958 121.727 659.716 121.727C658.86 121.727 658.095 121.913 657.42 122.284C656.754 122.655 656.227 123.197 655.841 123.909C655.455 124.621 655.261 125.485 655.261 126.5ZM676.435 137.409C675.329 137.409 674.325 137.201 673.423 136.784C672.522 136.36 671.806 135.75 671.276 134.955C670.745 134.152 670.48 133.182 670.48 132.045C670.48 131.045 670.677 130.235 671.071 129.614C671.465 128.985 671.991 128.492 672.651 128.136C673.31 127.78 674.037 127.515 674.832 127.341C675.635 127.159 676.442 127.015 677.253 126.909C678.313 126.773 679.173 126.67 679.832 126.602C680.499 126.527 680.984 126.402 681.287 126.227C681.598 126.053 681.753 125.75 681.753 125.318V125.227C681.753 124.106 681.446 123.235 680.832 122.614C680.226 121.992 679.306 121.682 678.071 121.682C676.791 121.682 675.787 121.962 675.06 122.523C674.332 123.083 673.821 123.682 673.526 124.318L670.98 123.409C671.435 122.348 672.041 121.523 672.798 120.932C673.563 120.333 674.397 119.917 675.298 119.682C676.207 119.439 677.101 119.318 677.98 119.318C678.541 119.318 679.185 119.386 679.912 119.523C680.647 119.652 681.355 119.92 682.037 120.33C682.726 120.739 683.298 121.356 683.753 122.182C684.207 123.008 684.435 124.114 684.435 125.5V137H681.753V134.636H681.616C681.435 135.015 681.132 135.42 680.707 135.852C680.283 136.284 679.719 136.652 679.014 136.955C678.31 137.258 677.45 137.409 676.435 137.409ZM676.844 135C677.904 135 678.798 134.792 679.526 134.375C680.26 133.958 680.813 133.42 681.185 132.761C681.563 132.102 681.753 131.409 681.753 130.682V128.227C681.639 128.364 681.389 128.489 681.003 128.602C680.624 128.708 680.185 128.803 679.685 128.886C679.192 128.962 678.711 129.03 678.241 129.091C677.779 129.144 677.404 129.189 677.116 129.227C676.42 129.318 675.768 129.466 675.162 129.67C674.563 129.867 674.079 130.167 673.707 130.568C673.344 130.962 673.162 131.5 673.162 132.182C673.162 133.114 673.507 133.818 674.196 134.295C674.893 134.765 675.776 135 676.844 135ZM689.33 137V119.545H691.92V122.273H692.148C692.511 121.341 693.098 120.617 693.909 120.102C694.72 119.58 695.693 119.318 696.83 119.318C697.981 119.318 698.939 119.58 699.705 120.102C700.477 120.617 701.08 121.341 701.511 122.273H701.693C702.14 121.371 702.811 120.655 703.705 120.125C704.598 119.587 705.67 119.318 706.92 119.318C708.481 119.318 709.758 119.807 710.75 120.784C711.742 121.754 712.239 123.265 712.239 125.318V137H709.557V125.318C709.557 124.03 709.205 123.11 708.5 122.557C707.795 122.004 706.966 121.727 706.011 121.727C704.784 121.727 703.833 122.098 703.159 122.841C702.485 123.576 702.148 124.508 702.148 125.636V137H699.42V125.045C699.42 124.053 699.098 123.254 698.455 122.648C697.811 122.034 696.981 121.727 695.966 121.727C695.269 121.727 694.617 121.913 694.011 122.284C693.413 122.655 692.928 123.17 692.557 123.83C692.193 124.481 692.011 125.235 692.011 126.091V137H689.33ZM724.46 137.364C722.778 137.364 721.328 136.992 720.108 136.25C718.896 135.5 717.96 134.455 717.301 133.114C716.65 131.765 716.324 130.197 716.324 128.409C716.324 126.621 716.65 125.045 717.301 123.682C717.96 122.311 718.877 121.242 720.051 120.477C721.233 119.705 722.612 119.318 724.188 119.318C725.097 119.318 725.994 119.47 726.881 119.773C727.767 120.076 728.574 120.568 729.301 121.25C730.028 121.924 730.608 122.818 731.04 123.932C731.472 125.045 731.688 126.417 731.688 128.045V129.182H718.233V126.864H728.96C728.96 125.879 728.763 125 728.369 124.227C727.983 123.455 727.43 122.845 726.71 122.398C725.998 121.951 725.157 121.727 724.188 121.727C723.119 121.727 722.195 121.992 721.415 122.523C720.642 123.045 720.047 123.727 719.631 124.568C719.214 125.409 719.006 126.311 719.006 127.273V128.818C719.006 130.136 719.233 131.254 719.688 132.17C720.15 133.08 720.79 133.773 721.608 134.25C722.426 134.72 723.377 134.955 724.46 134.955C725.165 134.955 725.801 134.856 726.369 134.659C726.945 134.455 727.441 134.152 727.858 133.75C728.275 133.341 728.597 132.833 728.824 132.227L731.415 132.955C731.142 133.833 730.684 134.606 730.04 135.273C729.396 135.932 728.6 136.447 727.653 136.818C726.706 137.182 725.642 137.364 724.46 137.364Z" fill="black"/>
<path d="M1282.82 62V38.7273H1285.64V49.0909H1298.05V38.7273H1300.86V62H1298.05V51.5909H1285.64V62H1282.82ZM1313.46 62.3636C1311.78 62.3636 1310.33 61.9924 1309.11 61.25C1307.9 60.5 1306.96 59.4545 1306.3 58.1136C1305.65 56.7652 1305.32 55.197 1305.32 53.4091C1305.32 51.6212 1305.65 50.0455 1306.3 48.6818C1306.96 47.3106 1307.88 46.2424 1309.05 45.4773C1310.23 44.7045 1311.61 44.3182 1313.19 44.3182C1314.1 44.3182 1314.99 44.4697 1315.88 44.7727C1316.77 45.0758 1317.57 45.5682 1318.3 46.25C1319.03 46.9242 1319.61 47.8182 1320.04 48.9318C1320.47 50.0455 1320.69 51.4167 1320.69 53.0455V54.1818H1307.23V51.8636H1317.96C1317.96 50.8788 1317.76 50 1317.37 49.2273C1316.98 48.4545 1316.43 47.8447 1315.71 47.3977C1315 46.9508 1314.16 46.7273 1313.19 46.7273C1312.12 46.7273 1311.2 46.9924 1310.41 47.5227C1309.64 48.0455 1309.05 48.7273 1308.63 49.5682C1308.21 50.4091 1308.01 51.3106 1308.01 52.2727V53.8182C1308.01 55.1364 1308.23 56.2538 1308.69 57.1705C1309.15 58.0795 1309.79 58.7727 1310.61 59.25C1311.43 59.7197 1312.38 59.9545 1313.46 59.9545C1314.16 59.9545 1314.8 59.8561 1315.37 59.6591C1315.95 59.4545 1316.44 59.1515 1316.86 58.75C1317.27 58.3409 1317.6 57.8333 1317.82 57.2273L1320.41 57.9545C1320.14 58.8333 1319.68 59.6061 1319.04 60.2727C1318.4 60.9318 1317.6 61.447 1316.65 61.8182C1315.71 62.1818 1314.64 62.3636 1313.46 62.3636ZM1329.9 62.4091C1328.8 62.4091 1327.79 62.2008 1326.89 61.7841C1325.99 61.3598 1325.27 60.75 1324.74 59.9545C1324.21 59.1515 1323.95 58.1818 1323.95 57.0455C1323.95 56.0455 1324.15 55.2348 1324.54 54.6136C1324.93 53.9848 1325.46 53.4924 1326.12 53.1364C1326.78 52.7803 1327.51 52.5152 1328.3 52.3409C1329.1 52.1591 1329.91 52.0152 1330.72 51.9091C1331.78 51.7727 1332.64 51.6705 1333.3 51.6023C1333.97 51.5265 1334.45 51.4015 1334.76 51.2273C1335.07 51.053 1335.22 50.75 1335.22 50.3182V50.2273C1335.22 49.1061 1334.91 48.2348 1334.3 47.6136C1333.7 46.9924 1332.77 46.6818 1331.54 46.6818C1330.26 46.6818 1329.26 46.9621 1328.53 47.5227C1327.8 48.0833 1327.29 48.6818 1326.99 49.3182L1324.45 48.4091C1324.9 47.3485 1325.51 46.5227 1326.27 45.9318C1327.03 45.3333 1327.87 44.9167 1328.77 44.6818C1329.68 44.4394 1330.57 44.3182 1331.45 44.3182C1332.01 44.3182 1332.65 44.3864 1333.38 44.5227C1334.12 44.6515 1334.82 44.9205 1335.51 45.3295C1336.2 45.7386 1336.77 46.3561 1337.22 47.1818C1337.68 48.0076 1337.9 49.1136 1337.9 50.5V62H1335.22V59.6364H1335.09C1334.9 60.0152 1334.6 60.4205 1334.18 60.8523C1333.75 61.2841 1333.19 61.6515 1332.48 61.9545C1331.78 62.2576 1330.92 62.4091 1329.9 62.4091ZM1330.31 60C1331.37 60 1332.27 59.7917 1332.99 59.375C1333.73 58.9583 1334.28 58.4205 1334.65 57.7614C1335.03 57.1023 1335.22 56.4091 1335.22 55.6818V53.2273C1335.11 53.3636 1334.86 53.4886 1334.47 53.6023C1334.09 53.7083 1333.65 53.803 1333.15 53.8864C1332.66 53.9621 1332.18 54.0303 1331.71 54.0909C1331.25 54.1439 1330.87 54.1894 1330.59 54.2273C1329.89 54.3182 1329.24 54.4659 1328.63 54.6705C1328.03 54.8674 1327.55 55.1667 1327.18 55.5682C1326.81 55.9621 1326.63 56.5 1326.63 57.1818C1326.63 58.1136 1326.98 58.8182 1327.66 59.2955C1328.36 59.7652 1329.24 60 1330.31 60ZM1349.39 62.3636C1347.93 62.3636 1346.65 61.9962 1345.54 61.2614C1344.42 60.5189 1343.55 59.4735 1342.92 58.125C1342.29 56.7689 1341.98 55.1667 1341.98 53.3182C1341.98 51.4848 1342.29 49.8939 1342.92 48.5455C1343.55 47.197 1344.43 46.1553 1345.55 45.4205C1346.67 44.6856 1347.96 44.3182 1349.43 44.3182C1350.57 44.3182 1351.47 44.5076 1352.13 44.8864C1352.79 45.2576 1353.3 45.6818 1353.65 46.1591C1354.01 46.6288 1354.28 47.0152 1354.48 47.3182H1354.71V38.7273H1357.39V62H1354.8V59.3182H1354.48C1354.28 59.6364 1354 60.0379 1353.64 60.5227C1353.28 61 1352.76 61.428 1352.08 61.8068C1351.41 62.178 1350.51 62.3636 1349.39 62.3636ZM1349.75 59.9545C1350.83 59.9545 1351.74 59.6742 1352.48 59.1136C1353.22 58.5455 1353.79 57.7614 1354.17 56.7614C1354.56 55.7538 1354.75 54.5909 1354.75 53.2727C1354.75 51.9697 1354.56 50.8295 1354.18 49.8523C1353.81 48.8674 1353.25 48.1023 1352.5 47.5568C1351.76 47.0038 1350.84 46.7273 1349.75 46.7273C1348.62 46.7273 1347.67 47.0189 1346.91 47.6023C1346.16 48.178 1345.6 48.9621 1345.22 49.9545C1344.85 50.9394 1344.66 52.0455 1344.66 53.2727C1344.66 54.5152 1344.85 55.6439 1345.23 56.6591C1345.62 57.6667 1346.18 58.4697 1346.93 59.0682C1347.69 59.6591 1348.63 59.9545 1349.75 59.9545ZM1369.99 62.3636C1368.31 62.3636 1366.86 61.9924 1365.64 61.25C1364.43 60.5 1363.49 59.4545 1362.83 58.1136C1362.18 56.7652 1361.86 55.197 1361.86 53.4091C1361.86 51.6212 1362.18 50.0455 1362.83 48.6818C1363.49 47.3106 1364.41 46.2424 1365.58 45.4773C1366.76 44.7045 1368.14 44.3182 1369.72 44.3182C1370.63 44.3182 1371.53 44.4697 1372.41 44.7727C1373.3 45.0758 1374.11 45.5682 1374.83 46.25C1375.56 46.9242 1376.14 47.8182 1376.57 48.9318C1377 50.0455 1377.22 51.4167 1377.22 53.0455V54.1818H1363.76V51.8636H1374.49C1374.49 50.8788 1374.29 50 1373.9 49.2273C1373.51 48.4545 1372.96 47.8447 1372.24 47.3977C1371.53 46.9508 1370.69 46.7273 1369.72 46.7273C1368.65 46.7273 1367.73 46.9924 1366.95 47.5227C1366.17 48.0455 1365.58 48.7273 1365.16 49.5682C1364.75 50.4091 1364.54 51.3106 1364.54 52.2727V53.8182C1364.54 55.1364 1364.76 56.2538 1365.22 57.1705C1365.68 58.0795 1366.32 58.7727 1367.14 59.25C1367.96 59.7197 1368.91 59.9545 1369.99 59.9545C1370.7 59.9545 1371.33 59.8561 1371.9 59.6591C1372.48 59.4545 1372.97 59.1515 1373.39 58.75C1373.81 58.3409 1374.13 57.8333 1374.36 57.2273L1376.95 57.9545C1376.67 58.8333 1376.21 59.6061 1375.57 60.2727C1374.93 60.9318 1374.13 61.447 1373.18 61.8182C1372.24 62.1818 1371.17 62.3636 1369.99 62.3636ZM1381.3 62V44.5455H1383.89V47.1818H1384.07C1384.39 46.3182 1384.96 45.6174 1385.8 45.0795C1386.63 44.5417 1387.57 44.2727 1388.62 44.2727C1388.81 44.2727 1389.06 44.2765 1389.36 44.2841C1389.65 44.2917 1389.87 44.303 1390.03 44.3182V47.0455C1389.93 47.0227 1389.73 46.9886 1389.4 46.9432C1389.08 46.8902 1388.75 46.8636 1388.39 46.8636C1387.54 46.8636 1386.78 47.0417 1386.12 47.3977C1385.46 47.7462 1384.93 48.2311 1384.55 48.8523C1384.17 49.4659 1383.98 50.1667 1383.98 50.9545V62H1381.3Z" fill="black"/>
<rect x="392" y="186" width="742" height="838" fill="#FFD6D6"/>
<rect x="1134" y="185" width="306" height="469" fill="#FEFFD1"/>
<path d="M1167.77 241.364C1166.09 241.364 1164.64 240.992 1163.42 240.25C1162.21 239.5 1161.27 238.455 1160.61 237.114C1159.96 235.765 1159.64 234.197 1159.64 232.409C1159.64 230.621 1159.96 229.045 1160.61 227.682C1161.27 226.311 1162.19 225.242 1163.36 224.477C1164.55 223.705 1165.92 223.318 1167.5 223.318C1168.41 223.318 1169.31 223.47 1170.19 223.773C1171.08 224.076 1171.89 224.568 1172.61 225.25C1173.34 225.924 1173.92 226.818 1174.35 227.932C1174.78 229.045 1175 230.417 1175 232.045V233.182H1161.55V230.864H1172.27C1172.27 229.879 1172.08 229 1171.68 228.227C1171.3 227.455 1170.74 226.845 1170.02 226.398C1169.31 225.951 1168.47 225.727 1167.5 225.727C1166.43 225.727 1165.51 225.992 1164.73 226.523C1163.95 227.045 1163.36 227.727 1162.94 228.568C1162.53 229.409 1162.32 230.311 1162.32 231.273V232.818C1162.32 234.136 1162.55 235.254 1163 236.17C1163.46 237.08 1164.1 237.773 1164.92 238.25C1165.74 238.72 1166.69 238.955 1167.77 238.955C1168.48 238.955 1169.11 238.856 1169.68 238.659C1170.26 238.455 1170.75 238.152 1171.17 237.75C1171.59 237.341 1171.91 236.833 1172.14 236.227L1174.73 236.955C1174.45 237.833 1174 238.606 1173.35 239.273C1172.71 239.932 1171.91 240.447 1170.97 240.818C1170.02 241.182 1168.95 241.364 1167.77 241.364ZM1180.61 223.545L1184.79 230.682L1188.97 223.545H1192.07L1186.43 232.273L1192.07 241H1188.97L1184.79 234.227L1180.61 241H1177.52L1183.07 232.273L1177.52 223.545H1180.61ZM1203.48 223.545V225.818H1194.44V223.545H1203.48ZM1197.07 219.364H1199.76V236C1199.76 236.758 1199.87 237.326 1200.09 237.705C1200.31 238.076 1200.6 238.326 1200.95 238.455C1201.3 238.576 1201.68 238.636 1202.07 238.636C1202.37 238.636 1202.61 238.621 1202.8 238.591C1202.99 238.553 1203.14 238.523 1203.26 238.5L1203.8 240.909C1203.62 240.977 1203.37 241.045 1203.04 241.114C1202.71 241.189 1202.3 241.227 1201.8 241.227C1201.04 241.227 1200.3 241.064 1199.57 240.739C1198.85 240.413 1198.26 239.917 1197.78 239.25C1197.31 238.583 1197.07 237.742 1197.07 236.727V219.364ZM1207.52 241V223.545H1210.11V226.182H1210.29C1210.61 225.318 1211.18 224.617 1212.02 224.08C1212.85 223.542 1213.79 223.273 1214.84 223.273C1215.03 223.273 1215.28 223.277 1215.57 223.284C1215.87 223.292 1216.09 223.303 1216.24 223.318V226.045C1216.15 226.023 1215.95 225.989 1215.62 225.943C1215.3 225.89 1214.96 225.864 1214.61 225.864C1213.76 225.864 1213 226.042 1212.34 226.398C1211.68 226.746 1211.15 227.231 1210.77 227.852C1210.39 228.466 1210.2 229.167 1210.2 229.955V241H1207.52ZM1224.56 241.409C1223.45 241.409 1222.45 241.201 1221.55 240.784C1220.65 240.36 1219.93 239.75 1219.4 238.955C1218.87 238.152 1218.61 237.182 1218.61 236.045C1218.61 235.045 1218.8 234.235 1219.2 233.614C1219.59 232.985 1220.12 232.492 1220.78 232.136C1221.43 231.78 1222.16 231.515 1222.96 231.341C1223.76 231.159 1224.57 231.015 1225.38 230.909C1226.44 230.773 1227.3 230.67 1227.96 230.602C1228.62 230.527 1229.11 230.402 1229.41 230.227C1229.72 230.053 1229.88 229.75 1229.88 229.318V229.227C1229.88 228.106 1229.57 227.235 1228.96 226.614C1228.35 225.992 1227.43 225.682 1226.2 225.682C1224.92 225.682 1223.91 225.962 1223.18 226.523C1222.46 227.083 1221.95 227.682 1221.65 228.318L1219.11 227.409C1219.56 226.348 1220.17 225.523 1220.92 224.932C1221.69 224.333 1222.52 223.917 1223.42 223.682C1224.33 223.439 1225.23 223.318 1226.11 223.318C1226.67 223.318 1227.31 223.386 1228.04 223.523C1228.77 223.652 1229.48 223.92 1230.16 224.33C1230.85 224.739 1231.42 225.356 1231.88 226.182C1232.33 227.008 1232.56 228.114 1232.56 229.5V241H1229.88V238.636H1229.74C1229.56 239.015 1229.26 239.42 1228.83 239.852C1228.41 240.284 1227.84 240.652 1227.14 240.955C1226.43 241.258 1225.57 241.409 1224.56 241.409ZM1224.97 239C1226.03 239 1226.92 238.792 1227.65 238.375C1228.39 237.958 1228.94 237.42 1229.31 236.761C1229.69 236.102 1229.88 235.409 1229.88 234.682V232.227C1229.76 232.364 1229.51 232.489 1229.13 232.602C1228.75 232.708 1228.31 232.803 1227.81 232.886C1227.32 232.962 1226.84 233.03 1226.37 233.091C1225.9 233.144 1225.53 233.189 1225.24 233.227C1224.54 233.318 1223.89 233.466 1223.29 233.67C1222.69 233.867 1222.2 234.167 1221.83 234.568C1221.47 234.962 1221.29 235.5 1221.29 236.182C1221.29 237.114 1221.63 237.818 1222.32 238.295C1223.02 238.765 1223.9 239 1224.97 239ZM1253.55 241.364C1251.91 241.364 1250.5 240.977 1249.32 240.205C1248.14 239.432 1247.23 238.367 1246.59 237.011C1245.95 235.655 1245.64 234.106 1245.64 232.364C1245.64 230.591 1245.96 229.027 1246.61 227.67C1247.27 226.307 1248.19 225.242 1249.36 224.477C1250.55 223.705 1251.92 223.318 1253.5 223.318C1254.73 223.318 1255.83 223.545 1256.82 224C1257.8 224.455 1258.61 225.091 1259.24 225.909C1259.87 226.727 1260.26 227.682 1260.41 228.773H1257.73C1257.52 227.977 1257.07 227.273 1256.36 226.659C1255.67 226.038 1254.73 225.727 1253.55 225.727C1252.5 225.727 1251.58 226 1250.8 226.545C1250.02 227.083 1249.41 227.845 1248.97 228.83C1248.53 229.807 1248.32 230.955 1248.32 232.273C1248.32 233.621 1248.53 234.795 1248.95 235.795C1249.39 236.795 1249.99 237.572 1250.77 238.125C1251.56 238.678 1252.48 238.955 1253.55 238.955C1254.24 238.955 1254.88 238.833 1255.44 238.591C1256.01 238.348 1256.49 238 1256.89 237.545C1257.28 237.091 1257.56 236.545 1257.73 235.909H1260.41C1260.26 236.939 1259.88 237.867 1259.28 238.693C1258.69 239.511 1257.91 240.163 1256.93 240.648C1255.96 241.125 1254.83 241.364 1253.55 241.364ZM1271.42 241.364C1269.84 241.364 1268.46 240.989 1267.27 240.239C1266.09 239.489 1265.17 238.439 1264.5 237.091C1263.84 235.742 1263.51 234.167 1263.51 232.364C1263.51 230.545 1263.84 228.958 1264.5 227.602C1265.17 226.246 1266.09 225.193 1267.27 224.443C1268.46 223.693 1269.84 223.318 1271.42 223.318C1273 223.318 1274.38 223.693 1275.56 224.443C1276.75 225.193 1277.67 226.246 1278.33 227.602C1279 228.958 1279.33 230.545 1279.33 232.364C1279.33 234.167 1279 235.742 1278.33 237.091C1277.67 238.439 1276.75 239.489 1275.56 240.239C1274.38 240.989 1273 241.364 1271.42 241.364ZM1271.42 238.955C1272.62 238.955 1273.6 238.648 1274.38 238.034C1275.15 237.42 1275.72 236.614 1276.09 235.614C1276.46 234.614 1276.65 233.53 1276.65 232.364C1276.65 231.197 1276.46 230.11 1276.09 229.102C1275.72 228.095 1275.15 227.28 1274.38 226.659C1273.6 226.038 1272.62 225.727 1271.42 225.727C1270.22 225.727 1269.24 226.038 1268.47 226.659C1267.69 227.28 1267.12 228.095 1266.75 229.102C1266.38 230.11 1266.19 231.197 1266.19 232.364C1266.19 233.53 1266.38 234.614 1266.75 235.614C1267.12 236.614 1267.69 237.42 1268.47 238.034C1269.24 238.648 1270.22 238.955 1271.42 238.955ZM1286.11 230.5V241H1283.42V223.545H1286.01V226.273H1286.24C1286.65 225.386 1287.27 224.674 1288.11 224.136C1288.94 223.591 1290.01 223.318 1291.33 223.318C1292.51 223.318 1293.55 223.561 1294.43 224.045C1295.32 224.523 1296.01 225.25 1296.5 226.227C1297 227.197 1297.24 228.424 1297.24 229.909V241H1294.56V230.091C1294.56 228.72 1294.2 227.652 1293.49 226.886C1292.78 226.114 1291.8 225.727 1290.56 225.727C1289.7 225.727 1288.94 225.913 1288.26 226.284C1287.6 226.655 1287.07 227.197 1286.68 227.909C1286.3 228.621 1286.11 229.485 1286.11 230.5ZM1309.73 223.545V225.818H1300.69V223.545H1309.73ZM1303.32 219.364H1306.01V236C1306.01 236.758 1306.12 237.326 1306.34 237.705C1306.56 238.076 1306.85 238.326 1307.2 238.455C1307.55 238.576 1307.93 238.636 1308.32 238.636C1308.62 238.636 1308.86 238.621 1309.05 238.591C1309.24 238.553 1309.39 238.523 1309.51 238.5L1310.05 240.909C1309.87 240.977 1309.62 241.045 1309.29 241.114C1308.96 241.189 1308.55 241.227 1308.05 241.227C1307.29 241.227 1306.55 241.064 1305.82 240.739C1305.1 240.413 1304.51 239.917 1304.03 239.25C1303.56 238.583 1303.32 237.742 1303.32 236.727V219.364ZM1320.9 241.364C1319.22 241.364 1317.77 240.992 1316.55 240.25C1315.33 239.5 1314.4 238.455 1313.74 237.114C1313.09 235.765 1312.76 234.197 1312.76 232.409C1312.76 230.621 1313.09 229.045 1313.74 227.682C1314.4 226.311 1315.31 225.242 1316.49 224.477C1317.67 223.705 1319.05 223.318 1320.62 223.318C1321.53 223.318 1322.43 223.47 1323.32 223.773C1324.2 224.076 1325.01 224.568 1325.74 225.25C1326.47 225.924 1327.05 226.818 1327.48 227.932C1327.91 229.045 1328.12 230.417 1328.12 232.045V233.182H1314.67V230.864H1325.4C1325.4 229.879 1325.2 229 1324.81 228.227C1324.42 227.455 1323.87 226.845 1323.15 226.398C1322.44 225.951 1321.59 225.727 1320.62 225.727C1319.56 225.727 1318.63 225.992 1317.85 226.523C1317.08 227.045 1316.48 227.727 1316.07 228.568C1315.65 229.409 1315.44 230.311 1315.44 231.273V232.818C1315.44 234.136 1315.67 235.254 1316.12 236.17C1316.59 237.08 1317.23 237.773 1318.05 238.25C1318.86 238.72 1319.81 238.955 1320.9 238.955C1321.6 238.955 1322.24 238.856 1322.81 238.659C1323.38 238.455 1323.88 238.152 1324.3 237.75C1324.71 237.341 1325.03 236.833 1325.26 236.227L1327.85 236.955C1327.58 237.833 1327.12 238.606 1326.48 239.273C1325.83 239.932 1325.04 240.447 1324.09 240.818C1323.14 241.182 1322.08 241.364 1320.9 241.364ZM1334.89 230.5V241H1332.2V223.545H1334.8V226.273H1335.02C1335.43 225.386 1336.05 224.674 1336.89 224.136C1337.72 223.591 1338.8 223.318 1340.11 223.318C1341.3 223.318 1342.33 223.561 1343.22 224.045C1344.1 224.523 1344.79 225.25 1345.28 226.227C1345.78 227.197 1346.02 228.424 1346.02 229.909V241H1343.34V230.091C1343.34 228.72 1342.98 227.652 1342.27 226.886C1341.56 226.114 1340.58 225.727 1339.34 225.727C1338.48 225.727 1337.72 225.913 1337.05 226.284C1336.38 226.655 1335.85 227.197 1335.47 227.909C1335.08 228.621 1334.89 229.485 1334.89 230.5ZM1358.51 223.545V225.818H1349.47V223.545H1358.51ZM1352.11 219.364H1354.79V236C1354.79 236.758 1354.9 237.326 1355.12 237.705C1355.34 238.076 1355.63 238.326 1355.98 238.455C1356.34 238.576 1356.71 238.636 1357.11 238.636C1357.4 238.636 1357.64 238.621 1357.83 238.591C1358.02 238.553 1358.17 238.523 1358.29 238.5L1358.83 240.909C1358.65 240.977 1358.4 241.045 1358.07 241.114C1357.75 241.189 1357.33 241.227 1356.83 241.227C1356.07 241.227 1355.33 241.064 1354.61 240.739C1353.89 240.413 1353.29 239.917 1352.81 239.25C1352.34 238.583 1352.11 237.742 1352.11 236.727V219.364Z" fill="black"/>
<rect x="1134" y="654" width="306" height="370" fill="#B5DDEE"/>
<path d="M418.818 217.727H422.182L430.091 237.045H430.364L438.273 217.727H441.636V241H439V223.318H438.773L431.5 241H428.955L421.682 223.318H421.455V241H418.818V217.727ZM448.241 241H445.287L453.832 217.727H456.741L465.287 241H462.332L455.378 221.409H455.196L448.241 241ZM449.332 231.909H461.241V234.409H449.332V231.909ZM471.73 217.727V241H468.912V217.727H471.73ZM495.835 217.727V241H493.108L480.426 222.727H480.199V241H477.381V217.727H480.108L492.835 236.045H493.062V217.727H495.835ZM529.202 225H526.384C526.217 224.189 525.925 223.477 525.509 222.864C525.099 222.25 524.599 221.735 524.009 221.318C523.425 220.894 522.777 220.576 522.065 220.364C521.353 220.152 520.611 220.045 519.838 220.045C518.429 220.045 517.152 220.402 516.009 221.114C514.872 221.826 513.967 222.875 513.293 224.261C512.626 225.648 512.293 227.348 512.293 229.364C512.293 231.379 512.626 233.08 513.293 234.466C513.967 235.852 514.872 236.902 516.009 237.614C517.152 238.326 518.429 238.682 519.838 238.682C520.611 238.682 521.353 238.576 522.065 238.364C522.777 238.152 523.425 237.837 524.009 237.42C524.599 236.996 525.099 236.477 525.509 235.864C525.925 235.242 526.217 234.53 526.384 233.727H529.202C528.99 234.917 528.603 235.981 528.043 236.92C527.482 237.86 526.785 238.659 525.952 239.318C525.118 239.97 524.183 240.466 523.145 240.807C522.115 241.148 521.012 241.318 519.838 241.318C517.853 241.318 516.088 240.833 514.543 239.864C512.997 238.894 511.781 237.515 510.895 235.727C510.009 233.939 509.565 231.818 509.565 229.364C509.565 226.909 510.009 224.788 510.895 223C511.781 221.212 512.997 219.833 514.543 218.864C516.088 217.894 517.853 217.409 519.838 217.409C521.012 217.409 522.115 217.58 523.145 217.92C524.183 218.261 525.118 218.761 525.952 219.42C526.785 220.072 527.482 220.867 528.043 221.807C528.603 222.739 528.99 223.803 529.202 225ZM540.483 241.364C538.907 241.364 537.525 240.989 536.335 240.239C535.153 239.489 534.229 238.439 533.562 237.091C532.903 235.742 532.574 234.167 532.574 232.364C532.574 230.545 532.903 228.958 533.562 227.602C534.229 226.246 535.153 225.193 536.335 224.443C537.525 223.693 538.907 223.318 540.483 223.318C542.059 223.318 543.438 223.693 544.619 224.443C545.809 225.193 546.733 226.246 547.392 227.602C548.059 228.958 548.392 230.545 548.392 232.364C548.392 234.167 548.059 235.742 547.392 237.091C546.733 238.439 545.809 239.489 544.619 240.239C543.438 240.989 542.059 241.364 540.483 241.364ZM540.483 238.955C541.68 238.955 542.665 238.648 543.438 238.034C544.21 237.42 544.782 236.614 545.153 235.614C545.525 234.614 545.71 233.53 545.71 232.364C545.71 231.197 545.525 230.11 545.153 229.102C544.782 228.095 544.21 227.28 543.438 226.659C542.665 226.038 541.68 225.727 540.483 225.727C539.286 225.727 538.301 226.038 537.528 226.659C536.756 227.28 536.184 228.095 535.812 229.102C535.441 230.11 535.256 231.197 535.256 232.364C535.256 233.53 535.441 234.614 535.812 235.614C536.184 236.614 536.756 237.42 537.528 238.034C538.301 238.648 539.286 238.955 540.483 238.955ZM555.168 230.5V241H552.486V223.545H555.077V226.273H555.304C555.713 225.386 556.334 224.674 557.168 224.136C558.001 223.591 559.077 223.318 560.395 223.318C561.577 223.318 562.611 223.561 563.497 224.045C564.384 224.523 565.073 225.25 565.565 226.227C566.058 227.197 566.304 228.424 566.304 229.909V241H563.622V230.091C563.622 228.72 563.266 227.652 562.554 226.886C561.842 226.114 560.865 225.727 559.622 225.727C558.766 225.727 558.001 225.913 557.327 226.284C556.66 226.655 556.134 227.197 555.747 227.909C555.361 228.621 555.168 229.485 555.168 230.5ZM578.795 223.545V225.818H569.75V223.545H578.795ZM572.386 219.364H575.068V236C575.068 236.758 575.178 237.326 575.398 237.705C575.625 238.076 575.913 238.326 576.261 238.455C576.617 238.576 576.992 238.636 577.386 238.636C577.682 238.636 577.924 238.621 578.114 238.591C578.303 238.553 578.455 238.523 578.568 238.5L579.114 240.909C578.932 240.977 578.678 241.045 578.352 241.114C578.027 241.189 577.614 241.227 577.114 241.227C576.356 241.227 575.614 241.064 574.886 240.739C574.167 240.413 573.568 239.917 573.091 239.25C572.621 238.583 572.386 237.742 572.386 236.727V219.364ZM589.96 241.364C588.278 241.364 586.828 240.992 585.608 240.25C584.396 239.5 583.46 238.455 582.801 237.114C582.15 235.765 581.824 234.197 581.824 232.409C581.824 230.621 582.15 229.045 582.801 227.682C583.46 226.311 584.377 225.242 585.551 224.477C586.733 223.705 588.112 223.318 589.688 223.318C590.597 223.318 591.494 223.47 592.381 223.773C593.267 224.076 594.074 224.568 594.801 225.25C595.528 225.924 596.108 226.818 596.54 227.932C596.972 229.045 597.188 230.417 597.188 232.045V233.182H583.733V230.864H594.46C594.46 229.879 594.263 229 593.869 228.227C593.483 227.455 592.93 226.845 592.21 226.398C591.498 225.951 590.657 225.727 589.688 225.727C588.619 225.727 587.695 225.992 586.915 226.523C586.142 227.045 585.547 227.727 585.131 228.568C584.714 229.409 584.506 230.311 584.506 231.273V232.818C584.506 234.136 584.733 235.254 585.188 236.17C585.65 237.08 586.29 237.773 587.108 238.25C587.926 238.72 588.877 238.955 589.96 238.955C590.665 238.955 591.301 238.856 591.869 238.659C592.445 238.455 592.941 238.152 593.358 237.75C593.775 237.341 594.097 236.833 594.324 236.227L596.915 236.955C596.642 237.833 596.184 238.606 595.54 239.273C594.896 239.932 594.1 240.447 593.153 240.818C592.206 241.182 591.142 241.364 589.96 241.364ZM603.949 230.5V241H601.267V223.545H603.858V226.273H604.085C604.494 225.386 605.116 224.674 605.949 224.136C606.782 223.591 607.858 223.318 609.176 223.318C610.358 223.318 611.392 223.561 612.278 224.045C613.165 224.523 613.854 225.25 614.347 226.227C614.839 227.197 615.085 228.424 615.085 229.909V241H612.403V230.091C612.403 228.72 612.047 227.652 611.335 226.886C610.623 226.114 609.646 225.727 608.403 225.727C607.547 225.727 606.782 225.913 606.108 226.284C605.441 226.655 604.915 227.197 604.528 227.909C604.142 228.621 603.949 229.485 603.949 230.5ZM627.577 223.545V225.818H618.531V223.545H627.577ZM621.168 219.364H623.849V236C623.849 236.758 623.959 237.326 624.179 237.705C624.406 238.076 624.694 238.326 625.043 238.455C625.399 238.576 625.774 238.636 626.168 238.636C626.463 238.636 626.705 238.621 626.895 238.591C627.084 238.553 627.236 238.523 627.349 238.5L627.895 240.909C627.713 240.977 627.459 241.045 627.134 241.114C626.808 241.189 626.395 241.227 625.895 241.227C625.137 241.227 624.395 241.064 623.668 240.739C622.948 240.413 622.349 239.917 621.872 239.25C621.402 238.583 621.168 237.742 621.168 236.727V219.364Z" fill="black"/>
<path d="M1160.77 709.364C1159.09 709.364 1157.64 708.992 1156.42 708.25C1155.21 707.5 1154.27 706.455 1153.61 705.114C1152.96 703.765 1152.64 702.197 1152.64 700.409C1152.64 698.621 1152.96 697.045 1153.61 695.682C1154.27 694.311 1155.19 693.242 1156.36 692.477C1157.55 691.705 1158.92 691.318 1160.5 691.318C1161.41 691.318 1162.31 691.47 1163.19 691.773C1164.08 692.076 1164.89 692.568 1165.61 693.25C1166.34 693.924 1166.92 694.818 1167.35 695.932C1167.78 697.045 1168 698.417 1168 700.045V701.182H1154.55V698.864H1165.27C1165.27 697.879 1165.08 697 1164.68 696.227C1164.3 695.455 1163.74 694.845 1163.02 694.398C1162.31 693.951 1161.47 693.727 1160.5 693.727C1159.43 693.727 1158.51 693.992 1157.73 694.523C1156.95 695.045 1156.36 695.727 1155.94 696.568C1155.53 697.409 1155.32 698.311 1155.32 699.273V700.818C1155.32 702.136 1155.55 703.254 1156 704.17C1156.46 705.08 1157.1 705.773 1157.92 706.25C1158.74 706.72 1159.69 706.955 1160.77 706.955C1161.48 706.955 1162.11 706.856 1162.68 706.659C1163.26 706.455 1163.75 706.152 1164.17 705.75C1164.59 705.341 1164.91 704.833 1165.14 704.227L1167.73 704.955C1167.45 705.833 1167 706.606 1166.35 707.273C1165.71 707.932 1164.91 708.447 1163.97 708.818C1163.02 709.182 1161.95 709.364 1160.77 709.364ZM1173.61 691.545L1177.79 698.682L1181.97 691.545H1185.07L1179.43 700.273L1185.07 709H1181.97L1177.79 702.227L1173.61 709H1170.52L1176.07 700.273L1170.52 691.545H1173.61ZM1196.48 691.545V693.818H1187.44V691.545H1196.48ZM1190.07 687.364H1192.76V704C1192.76 704.758 1192.87 705.326 1193.09 705.705C1193.31 706.076 1193.6 706.326 1193.95 706.455C1194.3 706.576 1194.68 706.636 1195.07 706.636C1195.37 706.636 1195.61 706.621 1195.8 706.591C1195.99 706.553 1196.14 706.523 1196.26 706.5L1196.8 708.909C1196.62 708.977 1196.37 709.045 1196.04 709.114C1195.71 709.189 1195.3 709.227 1194.8 709.227C1194.04 709.227 1193.3 709.064 1192.57 708.739C1191.85 708.413 1191.26 707.917 1190.78 707.25C1190.31 706.583 1190.07 705.742 1190.07 704.727V687.364ZM1200.52 709V691.545H1203.11V694.182H1203.29C1203.61 693.318 1204.18 692.617 1205.02 692.08C1205.85 691.542 1206.79 691.273 1207.84 691.273C1208.03 691.273 1208.28 691.277 1208.57 691.284C1208.87 691.292 1209.09 691.303 1209.24 691.318V694.045C1209.15 694.023 1208.95 693.989 1208.62 693.943C1208.3 693.89 1207.96 693.864 1207.61 693.864C1206.76 693.864 1206 694.042 1205.34 694.398C1204.68 694.746 1204.15 695.231 1203.77 695.852C1203.39 696.466 1203.2 697.167 1203.2 697.955V709H1200.52ZM1217.56 709.409C1216.45 709.409 1215.45 709.201 1214.55 708.784C1213.65 708.36 1212.93 707.75 1212.4 706.955C1211.87 706.152 1211.61 705.182 1211.61 704.045C1211.61 703.045 1211.8 702.235 1212.2 701.614C1212.59 700.985 1213.12 700.492 1213.78 700.136C1214.43 699.78 1215.16 699.515 1215.96 699.341C1216.76 699.159 1217.57 699.015 1218.38 698.909C1219.44 698.773 1220.3 698.67 1220.96 698.602C1221.62 698.527 1222.11 698.402 1222.41 698.227C1222.72 698.053 1222.88 697.75 1222.88 697.318V697.227C1222.88 696.106 1222.57 695.235 1221.96 694.614C1221.35 693.992 1220.43 693.682 1219.2 693.682C1217.92 693.682 1216.91 693.962 1216.18 694.523C1215.46 695.083 1214.95 695.682 1214.65 696.318L1212.11 695.409C1212.56 694.348 1213.17 693.523 1213.92 692.932C1214.69 692.333 1215.52 691.917 1216.42 691.682C1217.33 691.439 1218.23 691.318 1219.11 691.318C1219.67 691.318 1220.31 691.386 1221.04 691.523C1221.77 691.652 1222.48 691.92 1223.16 692.33C1223.85 692.739 1224.42 693.356 1224.88 694.182C1225.33 695.008 1225.56 696.114 1225.56 697.5V709H1222.88V706.636H1222.74C1222.56 707.015 1222.26 707.42 1221.83 707.852C1221.41 708.284 1220.84 708.652 1220.14 708.955C1219.43 709.258 1218.57 709.409 1217.56 709.409ZM1217.97 707C1219.03 707 1219.92 706.792 1220.65 706.375C1221.39 705.958 1221.94 705.42 1222.31 704.761C1222.69 704.102 1222.88 703.409 1222.88 702.682V700.227C1222.76 700.364 1222.51 700.489 1222.13 700.602C1221.75 700.708 1221.31 700.803 1220.81 700.886C1220.32 700.962 1219.84 701.03 1219.37 701.091C1218.9 701.144 1218.53 701.189 1218.24 701.227C1217.54 701.318 1216.89 701.466 1216.29 701.67C1215.69 701.867 1215.2 702.167 1214.83 702.568C1214.47 702.962 1214.29 703.5 1214.29 704.182C1214.29 705.114 1214.63 705.818 1215.32 706.295C1216.02 706.765 1216.9 707 1217.97 707ZM1246.55 709.364C1244.91 709.364 1243.5 708.977 1242.32 708.205C1241.14 707.432 1240.23 706.367 1239.59 705.011C1238.95 703.655 1238.64 702.106 1238.64 700.364C1238.64 698.591 1238.96 697.027 1239.61 695.67C1240.27 694.307 1241.19 693.242 1242.36 692.477C1243.55 691.705 1244.92 691.318 1246.5 691.318C1247.73 691.318 1248.83 691.545 1249.82 692C1250.8 692.455 1251.61 693.091 1252.24 693.909C1252.87 694.727 1253.26 695.682 1253.41 696.773H1250.73C1250.52 695.977 1250.07 695.273 1249.36 694.659C1248.67 694.038 1247.73 693.727 1246.55 693.727C1245.5 693.727 1244.58 694 1243.8 694.545C1243.02 695.083 1242.41 695.845 1241.97 696.83C1241.53 697.807 1241.32 698.955 1241.32 700.273C1241.32 701.621 1241.53 702.795 1241.95 703.795C1242.39 704.795 1242.99 705.572 1243.77 706.125C1244.56 706.678 1245.48 706.955 1246.55 706.955C1247.24 706.955 1247.88 706.833 1248.44 706.591C1249.01 706.348 1249.49 706 1249.89 705.545C1250.28 705.091 1250.56 704.545 1250.73 703.909H1253.41C1253.26 704.939 1252.88 705.867 1252.28 706.693C1251.69 707.511 1250.91 708.163 1249.93 708.648C1248.96 709.125 1247.83 709.364 1246.55 709.364ZM1264.42 709.364C1262.84 709.364 1261.46 708.989 1260.27 708.239C1259.09 707.489 1258.17 706.439 1257.5 705.091C1256.84 703.742 1256.51 702.167 1256.51 700.364C1256.51 698.545 1256.84 696.958 1257.5 695.602C1258.17 694.246 1259.09 693.193 1260.27 692.443C1261.46 691.693 1262.84 691.318 1264.42 691.318C1266 691.318 1267.38 691.693 1268.56 692.443C1269.75 693.193 1270.67 694.246 1271.33 695.602C1272 696.958 1272.33 698.545 1272.33 700.364C1272.33 702.167 1272 703.742 1271.33 705.091C1270.67 706.439 1269.75 707.489 1268.56 708.239C1267.38 708.989 1266 709.364 1264.42 709.364ZM1264.42 706.955C1265.62 706.955 1266.6 706.648 1267.38 706.034C1268.15 705.42 1268.72 704.614 1269.09 703.614C1269.46 702.614 1269.65 701.53 1269.65 700.364C1269.65 699.197 1269.46 698.11 1269.09 697.102C1268.72 696.095 1268.15 695.28 1267.38 694.659C1266.6 694.038 1265.62 693.727 1264.42 693.727C1263.22 693.727 1262.24 694.038 1261.47 694.659C1260.69 695.28 1260.12 696.095 1259.75 697.102C1259.38 698.11 1259.19 699.197 1259.19 700.364C1259.19 701.53 1259.38 702.614 1259.75 703.614C1260.12 704.614 1260.69 705.42 1261.47 706.034C1262.24 706.648 1263.22 706.955 1264.42 706.955ZM1279.11 698.5V709H1276.42V691.545H1279.01V694.273H1279.24C1279.65 693.386 1280.27 692.674 1281.11 692.136C1281.94 691.591 1283.01 691.318 1284.33 691.318C1285.51 691.318 1286.55 691.561 1287.43 692.045C1288.32 692.523 1289.01 693.25 1289.5 694.227C1290 695.197 1290.24 696.424 1290.24 697.909V709H1287.56V698.091C1287.56 696.72 1287.2 695.652 1286.49 694.886C1285.78 694.114 1284.8 693.727 1283.56 693.727C1282.7 693.727 1281.94 693.913 1281.26 694.284C1280.6 694.655 1280.07 695.197 1279.68 695.909C1279.3 696.621 1279.11 697.485 1279.11 698.5ZM1302.73 691.545V693.818H1293.69V691.545H1302.73ZM1296.32 687.364H1299.01V704C1299.01 704.758 1299.12 705.326 1299.34 705.705C1299.56 706.076 1299.85 706.326 1300.2 706.455C1300.55 706.576 1300.93 706.636 1301.32 706.636C1301.62 706.636 1301.86 706.621 1302.05 706.591C1302.24 706.553 1302.39 706.523 1302.51 706.5L1303.05 708.909C1302.87 708.977 1302.62 709.045 1302.29 709.114C1301.96 709.189 1301.55 709.227 1301.05 709.227C1300.29 709.227 1299.55 709.064 1298.82 708.739C1298.1 708.413 1297.51 707.917 1297.03 707.25C1296.56 706.583 1296.32 705.742 1296.32 704.727V687.364ZM1313.9 709.364C1312.22 709.364 1310.77 708.992 1309.55 708.25C1308.33 707.5 1307.4 706.455 1306.74 705.114C1306.09 703.765 1305.76 702.197 1305.76 700.409C1305.76 698.621 1306.09 697.045 1306.74 695.682C1307.4 694.311 1308.31 693.242 1309.49 692.477C1310.67 691.705 1312.05 691.318 1313.62 691.318C1314.53 691.318 1315.43 691.47 1316.32 691.773C1317.2 692.076 1318.01 692.568 1318.74 693.25C1319.47 693.924 1320.05 694.818 1320.48 695.932C1320.91 697.045 1321.12 698.417 1321.12 700.045V701.182H1307.67V698.864H1318.4C1318.4 697.879 1318.2 697 1317.81 696.227C1317.42 695.455 1316.87 694.845 1316.15 694.398C1315.44 693.951 1314.59 693.727 1313.62 693.727C1312.56 693.727 1311.63 693.992 1310.85 694.523C1310.08 695.045 1309.48 695.727 1309.07 696.568C1308.65 697.409 1308.44 698.311 1308.44 699.273V700.818C1308.44 702.136 1308.67 703.254 1309.12 704.17C1309.59 705.08 1310.23 705.773 1311.05 706.25C1311.86 706.72 1312.81 706.955 1313.9 706.955C1314.6 706.955 1315.24 706.856 1315.81 706.659C1316.38 706.455 1316.88 706.152 1317.3 705.75C1317.71 705.341 1318.03 704.833 1318.26 704.227L1320.85 704.955C1320.58 705.833 1320.12 706.606 1319.48 707.273C1318.83 707.932 1318.04 708.447 1317.09 708.818C1316.14 709.182 1315.08 709.364 1313.9 709.364ZM1327.89 698.5V709H1325.2V691.545H1327.8V694.273H1328.02C1328.43 693.386 1329.05 692.674 1329.89 692.136C1330.72 691.591 1331.8 691.318 1333.11 691.318C1334.3 691.318 1335.33 691.561 1336.22 692.045C1337.1 692.523 1337.79 693.25 1338.28 694.227C1338.78 695.197 1339.02 696.424 1339.02 697.909V709H1336.34V698.091C1336.34 696.72 1335.98 695.652 1335.27 694.886C1334.56 694.114 1333.58 693.727 1332.34 693.727C1331.48 693.727 1330.72 693.913 1330.05 694.284C1329.38 694.655 1328.85 695.197 1328.47 695.909C1328.08 696.621 1327.89 697.485 1327.89 698.5ZM1351.51 691.545V693.818H1342.47V691.545H1351.51ZM1345.11 687.364H1347.79V704C1347.79 704.758 1347.9 705.326 1348.12 705.705C1348.34 706.076 1348.63 706.326 1348.98 706.455C1349.34 706.576 1349.71 706.636 1350.11 706.636C1350.4 706.636 1350.64 706.621 1350.83 706.591C1351.02 706.553 1351.17 706.523 1351.29 706.5L1351.83 708.909C1351.65 708.977 1351.4 709.045 1351.07 709.114C1350.75 709.189 1350.33 709.227 1349.83 709.227C1349.07 709.227 1348.33 709.064 1347.61 708.739C1346.89 708.413 1346.29 707.917 1345.81 707.25C1345.34 706.583 1345.11 705.742 1345.11 704.727V687.364Z" fill="black"/>
<g filter="url(#filter2_d_0_1)">
<rect x="425" y="266" width="308" height="236" fill="white"/>
</g>
<g filter="url(#filter3_d_0_1)">
<rect x="766" y="266" width="308" height="236" fill="white"/>
</g>
<g filter="url(#filter4_d_0_1)">
<rect x="1151" y="256" width="270" height="372" fill="white"/>
</g>
<g filter="url(#filter5_d_0_1)">
<rect x="1151" y="724" width="270" height="267" fill="white"/>
</g>
<g filter="url(#filter6_d_0_1)">
<rect x="425" y="519" width="308" height="236" fill="white"/>
</g>
<g filter="url(#filter7_d_0_1)">
<rect x="425" y="772" width="308" height="236" fill="white"/>
</g>
<g filter="url(#filter8_d_0_1)">
<rect x="765" y="772" width="308" height="236" fill="white"/>
</g>
<g filter="url(#filter9_d_0_1)">
<rect x="766" y="519" width="308" height="236" fill="white"/>
</g>
<g filter="url(#filter10_d_0_1)">
<rect x="1063" y="124" width="88" height="32" rx="16" fill="white"/>
</g>
<g filter="url(#filter11_d_0_1)">
<rect x="1192" y="124" width="88" height="32" rx="16" fill="white"/>
</g>
<g filter="url(#filter12_d_0_1)">
<rect x="1321" y="124" width="88" height="32" rx="16" fill="white"/>
</g>
<g filter="url(#filter13_d_0_1)">
<rect x="454" y="33" width="680" height="32" rx="16" fill="white"/>
</g>
<g filter="url(#filter14_d_0_1)">
<circle cx="502.5" cy="124.5" r="28.5" fill="#D9D9D9"/>
</g>
<g filter="url(#filter15_d_0_1)">
<circle cx="1231.5" cy="49.5" r="28.5" fill="#D9D9D9"/>
</g>
</g>
<defs>
<filter id="filter0_d_0_1" x="58" y="171" width="271" height="703" filterUnits="userSpaceOnUse" color-interpolation-filters="sRGB">
<feFlood flood-opacity="0" result="BackgroundImageFix"/>
<feColorMatrix in="SourceAlpha" type="matrix" values="0 0 0 0 0 0 0 0 0 0 0 0 0 0 0 0 0 0 127 0" result="hardAlpha"/>
<feOffset dy="4"/>
<feGaussianBlur stdDeviation="2"/>
<feComposite in2="hardAlpha" operator="out"/>
<feColorMatrix type="matrix" values="0 0 0 0 0 0 0 0 0 0 0 0 0 0 0 0 0 0 0.25 0"/>
<feBlend mode="normal" in2="BackgroundImageFix" result="effect1_dropShadow_0_1"/>
<feBlend mode="normal" in="SourceGraphic" in2="effect1_dropShadow_0_1" result="shape"/>
</filter>
<filter id="filter1_d_0_1" x="42" y="41" width="302" height="63" filterUnits="userSpaceOnUse" color-interpolation-filters="sRGB">
<feFlood flood-opacity="0" result="BackgroundImageFix"/>
<feColorMatrix in="SourceAlpha" type="matrix" values="0 0 0 0 0 0 0 0 0 0 0 0 0 0 0 0 0 0 127 0" result="hardAlpha"/>
<feOffset dy="4"/>
<feGaussianBlur stdDeviation="2"/>
<feComposite in2="hardAlpha" operator="out"/>
<feColorMatrix type="matrix" values="0 0 0 0 0 0 0 0 0 0 0 0 0 0 0 0 0 0 0.25 0"/>
<feBlend mode="normal" in2="BackgroundImageFix" result="effect1_dropShadow_0_1"/>
<feBlend mode="normal" in="SourceGraphic" in2="effect1_dropShadow_0_1" result="shape"/>
</filter>
<filter id="filter2_d_0_1" x="421" y="266" width="316" height="244" filterUnits="userSpaceOnUse" color-interpolation-filters="sRGB">
<feFlood flood-opacity="0" result="BackgroundImageFix"/>
<feColorMatrix in="SourceAlpha" type="matrix" values="0 0 0 0 0 0 0 0 0 0 0 0 0 0 0 0 0 0 127 0" result="hardAlpha"/>
<feOffset dy="4"/>
<feGaussianBlur stdDeviation="2"/>
<feComposite in2="hardAlpha" operator="out"/>
<feColorMatrix type="matrix" values="0 0 0 0 0 0 0 0 0 0 0 0 0 0 0 0 0 0 0.25 0"/>
<feBlend mode="normal" in2="BackgroundImageFix" result="effect1_dropShadow_0_1"/>
<feBlend mode="normal" in="SourceGraphic" in2="effect1_dropShadow_0_1" result="shape"/>
</filter>
<filter id="filter3_d_0_1" x="762" y="266" width="316" height="244" filterUnits="userSpaceOnUse" color-interpolation-filters="sRGB">
<feFlood flood-opacity="0" result="BackgroundImageFix"/>
<feColorMatrix in="SourceAlpha" type="matrix" values="0 0 0 0 0 0 0 0 0 0 0 0 0 0 0 0 0 0 127 0" result="hardAlpha"/>
<feOffset dy="4"/>
<feGaussianBlur stdDeviation="2"/>
<feComposite in2="hardAlpha" operator="out"/>
<feColorMatrix type="matrix" values="0 0 0 0 0 0 0 0 0 0 0 0 0 0 0 0 0 0 0.25 0"/>
<feBlend mode="normal" in2="BackgroundImageFix" result="effect1_dropShadow_0_1"/>
<feBlend mode="normal" in="SourceGraphic" in2="effect1_dropShadow_0_1" result="shape"/>
</filter>
<filter id="filter4_d_0_1" x="1147" y="256" width="278" height="380" filterUnits="userSpaceOnUse" color-interpolation-filters="sRGB">
<feFlood flood-opacity="0" result="BackgroundImageFix"/>
<feColorMatrix in="SourceAlpha" type="matrix" values="0 0 0 0 0 0 0 0 0 0 0 0 0 0 0 0 0 0 127 0" result="hardAlpha"/>
<feOffset dy="4"/>
<feGaussianBlur stdDeviation="2"/>
<feComposite in2="hardAlpha" operator="out"/>
<feColorMatrix type="matrix" values="0 0 0 0 0 0 0 0 0 0 0 0 0 0 0 0 0 0 0.25 0"/>
<feBlend mode="normal" in2="BackgroundImageFix" result="effect1_dropShadow_0_1"/>
<feBlend mode="normal" in="SourceGraphic" in2="effect1_dropShadow_0_1" result="shape"/>
</filter>
<filter id="filter5_d_0_1" x="1147" y="724" width="278" height="275" filterUnits="userSpaceOnUse" color-interpolation-filters="sRGB">
<feFlood flood-opacity="0" result="BackgroundImageFix"/>
<feColorMatrix in="SourceAlpha" type="matrix" values="0 0 0 0 0 0 0 0 0 0 0 0 0 0 0 0 0 0 127 0" result="hardAlpha"/>
<feOffset dy="4"/>
<feGaussianBlur stdDeviation="2"/>
<feComposite in2="hardAlpha" operator="out"/>
<feColorMatrix type="matrix" values="0 0 0 0 0 0 0 0 0 0 0 0 0 0 0 0 0 0 0.25 0"/>
<feBlend mode="normal" in2="BackgroundImageFix" result="effect1_dropShadow_0_1"/>
<feBlend mode="normal" in="SourceGraphic" in2="effect1_dropShadow_0_1" result="shape"/>
</filter>
<filter id="filter6_d_0_1" x="421" y="519" width="316" height="244" filterUnits="userSpaceOnUse" color-interpolation-filters="sRGB">
<feFlood flood-opacity="0" result="BackgroundImageFix"/>
<feColorMatrix in="SourceAlpha" type="matrix" values="0 0 0 0 0 0 0 0 0 0 0 0 0 0 0 0 0 0 127 0" result="hardAlpha"/>
<feOffset dy="4"/>
<feGaussianBlur stdDeviation="2"/>
<feComposite in2="hardAlpha" operator="out"/>
<feColorMatrix type="matrix" values="0 0 0 0 0 0 0 0 0 0 0 0 0 0 0 0 0 0 0.25 0"/>
<feBlend mode="normal" in2="BackgroundImageFix" result="effect1_dropShadow_0_1"/>
<feBlend mode="normal" in="SourceGraphic" in2="effect1_dropShadow_0_1" result="shape"/>
</filter>
<filter id="filter7_d_0_1" x="421" y="772" width="316" height="244" filterUnits="userSpaceOnUse" color-interpolation-filters="sRGB">
<feFlood flood-opacity="0" result="BackgroundImageFix"/>
<feColorMatrix in="SourceAlpha" type="matrix" values="0 0 0 0 0 0 0 0 0 0 0 0 0 0 0 0 0 0 127 0" result="hardAlpha"/>
<feOffset dy="4"/>
<feGaussianBlur stdDeviation="2"/>
<feComposite in2="hardAlpha" operator="out"/>
<feColorMatrix type="matrix" values="0 0 0 0 0 0 0 0 0 0 0 0 0 0 0 0 0 0 0.25 0"/>
<feBlend mode="normal" in2="BackgroundImageFix" result="effect1_dropShadow_0_1"/>
<feBlend mode="normal" in="SourceGraphic" in2="effect1_dropShadow_0_1" result="shape"/>
</filter>
<filter id="filter8_d_0_1" x="761" y="772" width="316" height="244" filterUnits="userSpaceOnUse" color-interpolation-filters="sRGB">
<feFlood flood-opacity="0" result="BackgroundImageFix"/>
<feColorMatrix in="SourceAlpha" type="matrix" values="0 0 0 0 0 0 0 0 0 0 0 0 0 0 0 0 0 0 127 0" result="hardAlpha"/>
<feOffset dy="4"/>
<feGaussianBlur stdDeviation="2"/>
<feComposite in2="hardAlpha" operator="out"/>
<feColorMatrix type="matrix" values="0 0 0 0 0 0 0 0 0 0 0 0 0 0 0 0 0 0 0.25 0"/>
<feBlend mode="normal" in2="BackgroundImageFix" result="effect1_dropShadow_0_1"/>
<feBlend mode="normal" in="SourceGraphic" in2="effect1_dropShadow_0_1" result="shape"/>
</filter>
<filter id="filter9_d_0_1" x="762" y="519" width="316" height="244" filterUnits="userSpaceOnUse" color-interpolation-filters="sRGB">
<feFlood flood-opacity="0" result="BackgroundImageFix"/>
<feColorMatrix in="SourceAlpha" type="matrix" values="0 0 0 0 0 0 0 0 0 0 0 0 0 0 0 0 0 0 127 0" result="hardAlpha"/>
<feOffset dy="4"/>
<feGaussianBlur stdDeviation="2"/>
<feComposite in2="hardAlpha" operator="out"/>
<feColorMatrix type="matrix" values="0 0 0 0 0 0 0 0 0 0 0 0 0 0 0 0 0 0 0.25 0"/>
<feBlend mode="normal" in2="BackgroundImageFix" result="effect1_dropShadow_0_1"/>
<feBlend mode="normal" in="SourceGraphic" in2="effect1_dropShadow_0_1" result="shape"/>
</filter>
<filter id="filter10_d_0_1" x="1059" y="124" width="96" height="40" filterUnits="userSpaceOnUse" color-interpolation-filters="sRGB">
<feFlood flood-opacity="0" result="BackgroundImageFix"/>
<feColorMatrix in="SourceAlpha" type="matrix" values="0 0 0 0 0 0 0 0 0 0 0 0 0 0 0 0 0 0 127 0" result="hardAlpha"/>
<feOffset dy="4"/>
<feGaussianBlur stdDeviation="2"/>
<feComposite in2="hardAlpha" operator="out"/>
<feColorMatrix type="matrix" values="0 0 0 0 0 0 0 0 0 0 0 0 0 0 0 0 0 0 0.25 0"/>
<feBlend mode="normal" in2="BackgroundImageFix" result="effect1_dropShadow_0_1"/>
<feBlend mode="normal" in="SourceGraphic" in2="effect1_dropShadow_0_1" result="shape"/>
</filter>
<filter id="filter11_d_0_1" x="1188" y="124" width="96" height="40" filterUnits="userSpaceOnUse" color-interpolation-filters="sRGB">
<feFlood flood-opacity="0" result="BackgroundImageFix"/>
<feColorMatrix in="SourceAlpha" type="matrix" values="0 0 0 0 0 0 0 0 0 0 0 0 0 0 0 0 0 0 127 0" result="hardAlpha"/>
<feOffset dy="4"/>
<feGaussianBlur stdDeviation="2"/>
<feComposite in2="hardAlpha" operator="out"/>
<feColorMatrix type="matrix" values="0 0 0 0 0 0 0 0 0 0 0 0 0 0 0 0 0 0 0.25 0"/>
<feBlend mode="normal" in2="BackgroundImageFix" result="effect1_dropShadow_0_1"/>
<feBlend mode="normal" in="SourceGraphic" in2="effect1_dropShadow_0_1" result="shape"/>
</filter>
<filter id="filter12_d_0_1" x="1317" y="124" width="96" height="40" filterUnits="userSpaceOnUse" color-interpolation-filters="sRGB">
<feFlood flood-opacity="0" result="BackgroundImageFix"/>
<feColorMatrix in="SourceAlpha" type="matrix" values="0 0 0 0 0 0 0 0 0 0 0 0 0 0 0 0 0 0 127 0" result="hardAlpha"/>
<feOffset dy="4"/>
<feGaussianBlur stdDeviation="2"/>
<feComposite in2="hardAlpha" operator="out"/>
<feColorMatrix type="matrix" values="0 0 0 0 0 0 0 0 0 0 0 0 0 0 0 0 0 0 0.25 0"/>
<feBlend mode="normal" in2="BackgroundImageFix" result="effect1_dropShadow_0_1"/>
<feBlend mode="normal" in="SourceGraphic" in2="effect1_dropShadow_0_1" result="shape"/>
</filter>
<filter id="filter13_d_0_1" x="450" y="33" width="688" height="40" filterUnits="userSpaceOnUse" color-interpolation-filters="sRGB">
<feFlood flood-opacity="0" result="BackgroundImageFix"/>
<feColorMatrix in="SourceAlpha" type="matrix" values="0 0 0 0 0 0 0 0 0 0 0 0 0 0 0 0 0 0 127 0" result="hardAlpha"/>
<feOffset dy="4"/>
<feGaussianBlur stdDeviation="2"/>
<feComposite in2="hardAlpha" operator="out"/>
<feColorMatrix type="matrix" values="0 0 0 0 0 0 0 0 0 0 0 0 0 0 0 0 0 0 0.25 0"/>
<feBlend mode="normal" in2="BackgroundImageFix" result="effect1_dropShadow_0_1"/>
<feBlend mode="normal" in="SourceGraphic" in2="effect1_dropShadow_0_1" result="shape"/>
</filter>
<filter id="filter14_d_0_1" x="470" y="96" width="65" height="65" filterUnits="userSpaceOnUse" color-interpolation-filters="sRGB">
<feFlood flood-opacity="0" result="BackgroundImageFix"/>
<feColorMatrix in="SourceAlpha" type="matrix" values="0 0 0 0 0 0 0 0 0 0 0 0 0 0 0 0 0 0 127 0" result="hardAlpha"/>
<feOffset dy="4"/>
<feGaussianBlur stdDeviation="2"/>
<feComposite in2="hardAlpha" operator="out"/>
<feColorMatrix type="matrix" values="0 0 0 0 0 0 0 0 0 0 0 0 0 0 0 0 0 0 0.25 0"/>
<feBlend mode="normal" in2="BackgroundImageFix" result="effect1_dropShadow_0_1"/>
<feBlend mode="normal" in="SourceGraphic" in2="effect1_dropShadow_0_1" result="shape"/>
</filter>
<filter id="filter15_d_0_1" x="1199" y="21" width="65" height="65" filterUnits="userSpaceOnUse" color-interpolation-filters="sRGB">
<feFlood flood-opacity="0" result="BackgroundImageFix"/>
<feColorMatrix in="SourceAlpha" type="matrix" values="0 0 0 0 0 0 0 0 0 0 0 0 0 0 0 0 0 0 127 0" result="hardAlpha"/>
<feOffset dy="4"/>
<feGaussianBlur stdDeviation="2"/>
<feComposite in2="hardAlpha" operator="out"/>
<feColorMatrix type="matrix" values="0 0 0 0 0 0 0 0 0 0 0 0 0 0 0 0 0 0 0.25 0"/>
<feBlend mode="normal" in2="BackgroundImageFix" result="effect1_dropShadow_0_1"/>
<feBlend mode="normal" in="SourceGraphic" in2="effect1_dropShadow_0_1" result="shape"/>
</filter>
<clipPath id="clip0_0_1">
<rect width="1440" height="1024" fill="white"/>
</clipPath>
</defs>
</svg>
